<?xml version="1.0" encoding="UTF-8" standalone="no"?>
<!DOCTYPE svg PUBLIC "-//W3C//DTD SVG 1.0//EN" "http://www.w3.org/TR/2001/REC-SVG-20010904/DTD/svg10.dtd">
<!-- 由 Microsoft Visio 11.0, SVG Export, v1.0 產生 PDCNN.svg Page-1 -->
<svg xmlns="http://www.w3.org/2000/svg" xmlns:xlink="http://www.w3.org/1999/xlink" xmlns:ev="http://www.w3.org/2001/xml-events"
		xmlns:v="http://schemas.microsoft.com/visio/2003/SVGExtensions/" width="8.09517in" height="5.24429in"
		viewBox="0 0 582.852 377.589" xml:space="preserve" color-interpolation-filters="sRGB" class="st34">
	<v:documentProperties v:langID="1028" v:metric="true" v:viewMarkup="false"/>

	<style type="text/css">
	<![CDATA[
		.st1 {fill:none;stroke:none;stroke-linecap:round;stroke-linejoin:round;stroke-width:0.25}
		.st2 {fill:#002060;font-family:Times New Roman;font-size:1.66667em;font-weight:bold}
		.st3 {fill:#e1ebf3;stroke:#404040;stroke-linecap:round;stroke-linejoin:round;stroke-width:0.25}
		.st4 {fill:#e1ebf3;stroke:#404040;stroke-linecap:round;stroke-linejoin:round;stroke-width:1.5}
		.st5 {fill:#e1ebf3;stroke:#404040;stroke-dasharray:10.5,7.5;stroke-linecap:round;stroke-linejoin:round;stroke-width:1.5}
		.st6 {fill:#ffffff;stroke:#404040;stroke-linecap:round;stroke-linejoin:round;stroke-width:0.25}
		.st7 {fill:#ffffff;stroke:#404040;stroke-dasharray:10.5,7.5;stroke-linecap:round;stroke-linejoin:round;stroke-width:1.5}
		.st8 {fill:#ffffff;stroke:#404040;stroke-linecap:round;stroke-linejoin:round;stroke-width:1.5}
		.st9 {fill:#fae9dc;stroke:#404040;stroke-linecap:round;stroke-linejoin:round;stroke-width:1.5}
		.st10 {marker-end:url(#mrkr5-41);stroke:#404040;stroke-linecap:round;stroke-linejoin:round;stroke-width:1.5}
		.st11 {fill:#404040;fill-opacity:1;stroke:#404040;stroke-opacity:1;stroke-width:0.37313432835821}
		.st12 {fill:#faeadc;stroke:#404040;stroke-linecap:round;stroke-linejoin:round;stroke-width:0.25}
		.st13 {fill:#faeadc;stroke:#404040;stroke-dasharray:10.5,7.5;stroke-linecap:round;stroke-linejoin:round;stroke-width:1.5}
		.st14 {marker-end:url(#mrkr10-112);marker-start:url(#mrkr10-110);stroke:#c00000;stroke-linecap:round;stroke-linejoin:round;stroke-width:1}
		.st15 {fill:#c00000;fill-opacity:1;stroke:#c00000;stroke-opacity:1;stroke-width:0.28409090909091}
		.st16 {fill:#ffffff;stroke:none;stroke-linecap:butt;stroke-width:7.2}
		.st17 {fill:#c00000;font-family:Times New Roman;font-size:1.5em;font-weight:bold}
		.st18 {font-size:1em}
		.st19 {fill:#3e75a6;font-family:Times New Roman;font-size:1.5em;font-weight:bold}
		.st20 {font-size:1em;font-weight:normal}
		.st21 {font-family:微軟正黑體;font-size:1em;font-weight:normal}
		.st22 {font-size:1em;font-style:italic;font-weight:normal}
		.st23 {baseline-shift:-32.4951%;font-size:0.649902em;font-style:italic;font-weight:normal}
		.st24 {marker-end:url(#mrkr13-209);stroke:#404040;stroke-linecap:round;stroke-linejoin:round;stroke-width:3}
		.st25 {fill:#404040;fill-opacity:1;stroke:#404040;stroke-opacity:1;stroke-width:0.43103448275862}
		.st26 {fill:#5f6c35;font-family:Times New Roman;font-size:1.66667em;font-weight:bold}
		.st27 {marker-end:url(#mrkr5-41);stroke:#404040;stroke-dasharray:10.5,7.5;stroke-linecap:round;stroke-linejoin:round;stroke-width:1.5}
		.st28 {marker-end:url(#mrkr10-112);marker-start:url(#mrkr10-110);stroke:#c00000;stroke-dasharray:1,2;stroke-linecap:round;stroke-linejoin:round;stroke-width:1}
		.st29 {marker-end:url(#mrkr10-112);marker-start:url(#mrkr10-110);stroke:#c00000;stroke-dasharray:7,5;stroke-linecap:round;stroke-linejoin:round;stroke-width:1}
		.st30 {fill:#000000;font-family:Times New Roman;font-size:1.66667em;font-style:italic}
		.st31 {baseline-shift:-32.4947%;font-size:0.649894em}
		.st32 {font-size:1em;font-style:normal}
		.st33 {fill:#000000;font-family:Times New Roman;font-size:1.66667em}
		.st34 {fill:none;fill-rule:evenodd;font-size:12px;overflow:visible;stroke-linecap:square;stroke-miterlimit:3}
	]]>
	</style>

	<defs id="Patterns_And_Gradients">
		<linearGradient id="grad30-38" v:fillPattern="30" v:foreground="#cbddeb" v:background="#e1ebf3" x1="0" y1="1" x2="0" y2="0">
			<stop offset="0" style="stop-color:#cbddeb;stop-opacity:1"/>
			<stop offset="1" style="stop-color:#e1ebf3;stop-opacity:1"/>
		</linearGradient>
		<linearGradient id="grad30-107" v:fillPattern="30" v:foreground="#f0f0f0" v:background="#ffffff" x1="0" y1="1" x2="0"
				y2="0">
			<stop offset="0" style="stop-color:#f0f0f0;stop-opacity:1"/>
			<stop offset="1" style="stop-color:#ffffff;stop-opacity:1"/>
		</linearGradient>
	</defs>
	<defs id="Markers">
		<g id="lend5">
			<path d="M 2 1 L 0 0 L 1.98117 -0.993387 C 1.67173 -0.364515 1.67301 0.372641 1.98465 1.00043 " style="stroke:none"/>
		</g>
		<marker id="mrkr5-41" class="st11" v:arrowType="5" v:arrowSize="2" v:setback="4.69" refX="-4.69" orient="auto"
				markerUnits="strokeWidth" overflow="visible">
			<use xlink:href="#lend5" transform="scale(-2.68,-2.68) "/>
		</marker>
		<g id="lend10">
			<path
					d="M 0 0.75 C -0.414214 0.75 -0.75 0.414214 -0.75 0 -0.75 -0.414214 -0.414214 -0.75 0 -0.75 0.414214 -0.75 0.75 -0.414214 0.75 0 0.75 0.414214 0.414214 0.75 0 0.75 Z "
					style="stroke:none"/>
		</g>
		<marker id="mrkr10-110" class="st15" v:arrowType="10" v:arrowSize="2" v:setback="2.28" refX="2.28" orient="auto"
				markerUnits="strokeWidth" overflow="visible">
			<use xlink:href="#lend10" transform="scale(3.52) "/>
		</marker>
		<marker id="mrkr10-112" class="st15" v:arrowType="10" v:arrowSize="2" v:setback="2.64" refX="-2.64" orient="auto"
				markerUnits="strokeWidth" overflow="visible">
			<use xlink:href="#lend10" transform="scale(-3.52,-3.52) "/>
		</marker>
		<g id="lend13">
			<path d="M 3 1 L 0 0 L 3 -1 L 3 1 " style="stroke:none"/>
		</g>
		<marker id="mrkr13-209" class="st25" v:arrowType="13" v:arrowSize="4" v:setback="6.84" refX="-6.84" orient="auto"
				markerUnits="strokeWidth" overflow="visible">
			<use xlink:href="#lend13" transform="scale(-2.32,-2.32) "/>
		</marker>
	</defs>
	<g v:mID="0" v:index="1" v:groupContext="foregroundPage">
		<title>Page-1</title>
		<v:pageProperties v:drawingScale="0.0393701" v:pageScale="0.0393701" v:drawingUnits="24" v:shadowOffsetX="8.50394"
				v:shadowOffsetY="-8.50394"/>
		<v:layer v:name="連接器" v:index="0"/>
		<v:layer v:name="流程圖" v:index="1"/>
		<g id="shape1-1" v:mID="1" v:groupContext="shape" transform="translate(1.5,-354.959)">
			<title>工作表.1</title>
			<desc>Fixed dilated convolution</desc>
			<v:userDefs>
				<v:ud v:nameU="msvThemeColors" v:val="VT0(36):26"/>
				<v:ud v:nameU="msvThemeEffects" v:val="VT0(16):26"/>
			</v:userDefs>
			<v:textBlock v:margins="rect(2,2,2,2)" v:tabSpace="42.5197"/>
			<v:textRect cx="110.551" cy="366.959" width="221.11" height="21.2598"/>
			<rect x="0" y="356.329" width="221.102" height="21.2598" class="st1"/>
			<text x="2" y="372.96" class="st2" v:langID="1028"><v:paragraph/><v:tabList/>Fixed dilated convolution</text>		</g>
		<g id="shape2-4" v:mID="2" v:groupContext="shape" v:layerMember="0;1" transform="translate(299.138,-43.1483)">
			<title>頁面上的參考.950</title>
			<v:userDefs>
				<v:ud v:nameU="visVersion" v:prompt="" v:val="VT0(14):26"/>
				<v:ud v:nameU="msvThemeColors" v:val="VT0(36):26"/>
				<v:ud v:nameU="msvThemeEffects" v:val="VT0(16):26"/>
			</v:userDefs>
			<path d="M0 363.42 A14.1732 14.1732 0 0 1 28.35 363.42 A14.1732 14.1732 0 1 1 0 363.42 Z" class="st3"/>
		</g>
		<g id="shape3-6" v:mID="3" v:groupContext="shape" v:layerMember="0;1" transform="translate(341.657,-43.1483)">
			<title>頁面上的參考.951</title>
			<v:userDefs>
				<v:ud v:nameU="visVersion" v:prompt="" v:val="VT0(14):26"/>
				<v:ud v:nameU="msvThemeColors" v:val="VT0(36):26"/>
				<v:ud v:nameU="msvThemeEffects" v:val="VT0(16):26"/>
			</v:userDefs>
			<path d="M0 363.42 A14.1732 14.1732 0 0 1 28.35 363.42 A14.1732 14.1732 0 1 1 0 363.42 Z" class="st4"/>
		</g>
		<g id="shape4-8" v:mID="4" v:groupContext="shape" v:layerMember="0;1" transform="translate(384.177,-43.1483)">
			<title>頁面上的參考.952</title>
			<v:userDefs>
				<v:ud v:nameU="visVersion" v:prompt="" v:val="VT0(14):26"/>
				<v:ud v:nameU="msvThemeColors" v:val="VT0(36):26"/>
				<v:ud v:nameU="msvThemeEffects" v:val="VT0(16):26"/>
			</v:userDefs>
			<path d="M0 363.42 A14.1732 14.1732 0 0 1 28.35 363.42 A14.1732 14.1732 0 1 1 0 363.42 Z" class="st5"/>
		</g>
		<g id="shape5-10" v:mID="5" v:groupContext="shape" v:layerMember="0;1" transform="translate(426.697,-43.1483)">
			<title>頁面上的參考.953</title>
			<v:userDefs>
				<v:ud v:nameU="visVersion" v:prompt="" v:val="VT0(14):26"/>
				<v:ud v:nameU="msvThemeColors" v:val="VT0(36):26"/>
				<v:ud v:nameU="msvThemeEffects" v:val="VT0(16):26"/>
			</v:userDefs>
			<path d="M0 363.42 A14.1732 14.1732 0 0 1 28.35 363.42 A14.1732 14.1732 0 1 1 0 363.42 Z" class="st4"/>
		</g>
		<g id="shape6-12" v:mID="6" v:groupContext="shape" v:layerMember="0;1" transform="translate(171.579,-43.1483)">
			<title>頁面上的參考.954</title>
			<v:userDefs>
				<v:ud v:nameU="visVersion" v:prompt="" v:val="VT0(14):26"/>
				<v:ud v:nameU="msvThemeColors" v:val="VT0(36):26"/>
				<v:ud v:nameU="msvThemeEffects" v:val="VT0(16):26"/>
			</v:userDefs>
			<path d="M0 363.42 A14.1732 14.1732 0 0 1 28.35 363.42 A14.1732 14.1732 0 1 1 0 363.42 Z" class="st4"/>
		</g>
		<g id="shape7-14" v:mID="7" v:groupContext="shape" v:layerMember="0;1" transform="translate(214.098,-43.1483)">
			<title>頁面上的參考.955</title>
			<v:userDefs>
				<v:ud v:nameU="visVersion" v:prompt="" v:val="VT0(14):26"/>
				<v:ud v:nameU="msvThemeColors" v:val="VT0(36):26"/>
				<v:ud v:nameU="msvThemeEffects" v:val="VT0(16):26"/>
			</v:userDefs>
			<path d="M0 363.42 A14.1732 14.1732 0 0 1 28.35 363.42 A14.1732 14.1732 0 1 1 0 363.42 Z" class="st3"/>
		</g>
		<g id="shape8-16" v:mID="8" v:groupContext="shape" v:layerMember="0;1" transform="translate(256.618,-43.1483)">
			<title>頁面上的參考.956</title>
			<v:userDefs>
				<v:ud v:nameU="visVersion" v:prompt="" v:val="VT0(14):26"/>
				<v:ud v:nameU="msvThemeColors" v:val="VT0(36):26"/>
				<v:ud v:nameU="msvThemeEffects" v:val="VT0(16):26"/>
			</v:userDefs>
			<path d="M0 363.42 A14.1732 14.1732 0 0 1 28.35 363.42 A14.1732 14.1732 0 1 1 0 363.42 Z" class="st4"/>
		</g>
		<g id="shape9-18" v:mID="9" v:groupContext="shape" v:layerMember="0;1" transform="translate(299.138,-92.7546)">
			<title>頁面上的參考.957</title>
			<v:userDefs>
				<v:ud v:nameU="visVersion" v:prompt="" v:val="VT0(14):26"/>
				<v:ud v:nameU="msvThemeColors" v:val="VT0(36):26"/>
				<v:ud v:nameU="msvThemeEffects" v:val="VT0(16):26"/>
			</v:userDefs>
			<path d="M0 363.42 A14.1732 14.1732 0 0 1 28.35 363.42 A14.1732 14.1732 0 1 1 0 363.42 Z" class="st6"/>
		</g>
		<g id="shape10-20" v:mID="10" v:groupContext="shape" v:layerMember="0;1" transform="translate(341.657,-92.7546)">
			<title>頁面上的參考.958</title>
			<v:userDefs>
				<v:ud v:nameU="visVersion" v:prompt="" v:val="VT0(14):26"/>
				<v:ud v:nameU="msvThemeColors" v:val="VT0(36):26"/>
				<v:ud v:nameU="msvThemeEffects" v:val="VT0(16):26"/>
			</v:userDefs>
			<path d="M0 363.42 A14.1732 14.1732 0 0 1 28.35 363.42 A14.1732 14.1732 0 1 1 0 363.42 Z" class="st6"/>
		</g>
		<g id="shape11-22" v:mID="11" v:groupContext="shape" v:layerMember="0;1" transform="translate(384.177,-92.7546)">
			<title>頁面上的參考.959</title>
			<v:userDefs>
				<v:ud v:nameU="visVersion" v:prompt="" v:val="VT0(14):26"/>
				<v:ud v:nameU="msvThemeColors" v:val="VT0(36):26"/>
				<v:ud v:nameU="msvThemeEffects" v:val="VT0(16):26"/>
			</v:userDefs>
			<path d="M0 363.42 A14.1732 14.1732 0 0 1 28.35 363.42 A14.1732 14.1732 0 1 1 0 363.42 Z" class="st7"/>
		</g>
		<g id="shape12-24" v:mID="12" v:groupContext="shape" v:layerMember="0;1" transform="translate(426.697,-92.7546)">
			<title>頁面上的參考.960</title>
			<v:userDefs>
				<v:ud v:nameU="visVersion" v:prompt="" v:val="VT0(14):26"/>
				<v:ud v:nameU="msvThemeColors" v:val="VT0(36):26"/>
				<v:ud v:nameU="msvThemeEffects" v:val="VT0(16):26"/>
			</v:userDefs>
			<path d="M0 363.42 A14.1732 14.1732 0 0 1 28.35 363.42 A14.1732 14.1732 0 1 1 0 363.42 Z" class="st8"/>
		</g>
		<g id="shape13-26" v:mID="13" v:groupContext="shape" v:layerMember="0;1" transform="translate(171.579,-92.7546)">
			<title>頁面上的參考.961</title>
			<v:userDefs>
				<v:ud v:nameU="visVersion" v:prompt="" v:val="VT0(14):26"/>
				<v:ud v:nameU="msvThemeColors" v:val="VT0(36):26"/>
				<v:ud v:nameU="msvThemeEffects" v:val="VT0(16):26"/>
			</v:userDefs>
			<path d="M0 363.42 A14.1732 14.1732 0 0 1 28.35 363.42 A14.1732 14.1732 0 1 1 0 363.42 Z" class="st6"/>
		</g>
		<g id="shape14-28" v:mID="14" v:groupContext="shape" v:layerMember="0;1" transform="translate(214.098,-92.7546)">
			<title>頁面上的參考.962</title>
			<v:userDefs>
				<v:ud v:nameU="visVersion" v:prompt="" v:val="VT0(14):26"/>
				<v:ud v:nameU="msvThemeColors" v:val="VT0(36):26"/>
				<v:ud v:nameU="msvThemeEffects" v:val="VT0(16):26"/>
			</v:userDefs>
			<path d="M0 363.42 A14.1732 14.1732 0 0 1 28.35 363.42 A14.1732 14.1732 0 1 1 0 363.42 Z" class="st6"/>
		</g>
		<g id="shape15-30" v:mID="15" v:groupContext="shape" v:layerMember="0;1" transform="translate(256.618,-92.7546)">
			<title>頁面上的參考.963</title>
			<v:userDefs>
				<v:ud v:nameU="visVersion" v:prompt="" v:val="VT0(14):26"/>
				<v:ud v:nameU="msvThemeColors" v:val="VT0(36):26"/>
				<v:ud v:nameU="msvThemeEffects" v:val="VT0(16):26"/>
			</v:userDefs>
			<path d="M0 363.42 A14.1732 14.1732 0 0 1 28.35 363.42 A14.1732 14.1732 0 1 1 0 363.42 Z" class="st8"/>
		</g>
		<g id="shape16-32" v:mID="16" v:groupContext="shape" v:layerMember="0;1" transform="translate(426.697,-142.361)">
			<title>頁面上的參考.964</title>
			<v:userDefs>
				<v:ud v:nameU="visVersion" v:prompt="" v:val="VT0(14):26"/>
				<v:ud v:nameU="msvThemeColors" v:val="VT0(36):26"/>
				<v:ud v:nameU="msvThemeEffects" v:val="VT0(16):26"/>
			</v:userDefs>
			<path d="M0 363.42 A14.1732 14.1732 0 0 1 28.35 363.42 A14.1732 14.1732 0 1 1 0 363.42 Z" class="st9"/>
		</g>
		<g id="shape17-34" v:mID="17" v:groupContext="shape" v:layerMember="0" transform="translate(433.783,-71.4947)">
			<title>動態連接器.965</title>
			<v:userDefs>
				<v:ud v:nameU="msvThemeColors" v:val="VT0(36):26"/>
				<v:ud v:nameU="msvThemeEffects" v:val="VT0(16):26"/>
			</v:userDefs>
			<path d="M7.09 377.59 L7.09 363.36" class="st10"/>
		</g>
		<g id="shape18-42" v:mID="18" v:groupContext="shape" v:layerMember="0;1" transform="translate(299.138,-142.361)">
			<title>頁面上的參考.966</title>
			<v:userDefs>
				<v:ud v:nameU="visVersion" v:prompt="" v:val="VT0(14):26"/>
				<v:ud v:nameU="msvThemeColors" v:val="VT0(36):26"/>
				<v:ud v:nameU="msvThemeEffects" v:val="VT0(16):26"/>
			</v:userDefs>
			<path d="M0 363.42 A14.1732 14.1732 0 0 1 28.35 363.42 A14.1732 14.1732 0 1 1 0 363.42 Z" class="st12"/>
		</g>
		<g id="shape19-44" v:mID="19" v:groupContext="shape" v:layerMember="0;1" transform="translate(341.657,-142.361)">
			<title>頁面上的參考.967</title>
			<v:userDefs>
				<v:ud v:nameU="visVersion" v:prompt="" v:val="VT0(14):26"/>
				<v:ud v:nameU="msvThemeColors" v:val="VT0(36):26"/>
				<v:ud v:nameU="msvThemeEffects" v:val="VT0(16):26"/>
			</v:userDefs>
			<path d="M0 363.42 A14.1732 14.1732 0 0 1 28.35 363.42 A14.1732 14.1732 0 1 1 0 363.42 Z" class="st12"/>
		</g>
		<g id="shape20-46" v:mID="20" v:groupContext="shape" v:layerMember="0;1" transform="translate(384.177,-142.361)">
			<title>頁面上的參考.968</title>
			<v:userDefs>
				<v:ud v:nameU="visVersion" v:prompt="" v:val="VT0(14):26"/>
				<v:ud v:nameU="msvThemeColors" v:val="VT0(36):26"/>
				<v:ud v:nameU="msvThemeEffects" v:val="VT0(16):26"/>
			</v:userDefs>
			<path d="M0 363.42 A14.1732 14.1732 0 0 1 28.35 363.42 A14.1732 14.1732 0 1 1 0 363.42 Z" class="st13"/>
		</g>
		<g id="shape21-48" v:mID="21" v:groupContext="shape" v:layerMember="0;1" transform="translate(171.579,-142.361)">
			<title>頁面上的參考.969</title>
			<v:userDefs>
				<v:ud v:nameU="visVersion" v:prompt="" v:val="VT0(14):26"/>
				<v:ud v:nameU="msvThemeColors" v:val="VT0(36):26"/>
				<v:ud v:nameU="msvThemeEffects" v:val="VT0(16):26"/>
			</v:userDefs>
			<path d="M0 363.42 A14.1732 14.1732 0 0 1 28.35 363.42 A14.1732 14.1732 0 1 1 0 363.42 Z" class="st12"/>
		</g>
		<g id="shape22-50" v:mID="22" v:groupContext="shape" v:layerMember="0;1" transform="translate(214.098,-142.361)">
			<title>頁面上的參考.970</title>
			<v:userDefs>
				<v:ud v:nameU="visVersion" v:prompt="" v:val="VT0(14):26"/>
				<v:ud v:nameU="msvThemeColors" v:val="VT0(36):26"/>
				<v:ud v:nameU="msvThemeEffects" v:val="VT0(16):26"/>
			</v:userDefs>
			<path d="M0 363.42 A14.1732 14.1732 0 0 1 28.35 363.42 A14.1732 14.1732 0 1 1 0 363.42 Z" class="st12"/>
		</g>
		<g id="shape23-52" v:mID="23" v:groupContext="shape" v:layerMember="0;1" transform="translate(256.618,-142.361)">
			<title>頁面上的參考.971</title>
			<v:userDefs>
				<v:ud v:nameU="visVersion" v:prompt="" v:val="VT0(14):26"/>
				<v:ud v:nameU="msvThemeColors" v:val="VT0(36):26"/>
				<v:ud v:nameU="msvThemeEffects" v:val="VT0(16):26"/>
			</v:userDefs>
			<path d="M0 363.42 A14.1732 14.1732 0 0 1 28.35 363.42 A14.1732 14.1732 0 1 1 0 363.42 Z" class="st12"/>
		</g>
		<g id="shape24-54" v:mID="24" v:groupContext="shape" v:layerMember="0;1" transform="translate(299.138,-241.573)">
			<title>頁面上的參考.972</title>
			<v:userDefs>
				<v:ud v:nameU="visVersion" v:prompt="" v:val="VT0(14):26"/>
				<v:ud v:nameU="msvThemeColors" v:val="VT0(36):26"/>
				<v:ud v:nameU="msvThemeEffects" v:val="VT0(16):26"/>
			</v:userDefs>
			<path d="M0 363.42 A14.1732 14.1732 0 0 1 28.35 363.42 A14.1732 14.1732 0 1 1 0 363.42 Z" class="st4"/>
		</g>
		<g id="shape25-56" v:mID="25" v:groupContext="shape" v:layerMember="0;1" transform="translate(341.657,-241.573)">
			<title>頁面上的參考.973</title>
			<v:userDefs>
				<v:ud v:nameU="visVersion" v:prompt="" v:val="VT0(14):26"/>
				<v:ud v:nameU="msvThemeColors" v:val="VT0(36):26"/>
				<v:ud v:nameU="msvThemeEffects" v:val="VT0(16):26"/>
			</v:userDefs>
			<path d="M0 363.42 A14.1732 14.1732 0 0 1 28.35 363.42 A14.1732 14.1732 0 1 1 0 363.42 Z" class="st4"/>
		</g>
		<g id="shape26-58" v:mID="26" v:groupContext="shape" v:layerMember="0;1" transform="translate(384.177,-241.573)">
			<title>頁面上的參考.974</title>
			<v:userDefs>
				<v:ud v:nameU="visVersion" v:prompt="" v:val="VT0(14):26"/>
				<v:ud v:nameU="msvThemeColors" v:val="VT0(36):26"/>
				<v:ud v:nameU="msvThemeEffects" v:val="VT0(16):26"/>
			</v:userDefs>
			<path d="M0 363.42 A14.1732 14.1732 0 0 1 28.35 363.42 A14.1732 14.1732 0 1 1 0 363.42 Z" class="st4"/>
		</g>
		<g id="shape27-60" v:mID="27" v:groupContext="shape" v:layerMember="0;1" transform="translate(426.697,-241.573)">
			<title>頁面上的參考.975</title>
			<v:userDefs>
				<v:ud v:nameU="visVersion" v:prompt="" v:val="VT0(14):26"/>
				<v:ud v:nameU="msvThemeColors" v:val="VT0(36):26"/>
				<v:ud v:nameU="msvThemeEffects" v:val="VT0(16):26"/>
			</v:userDefs>
			<path d="M0 363.42 A14.1732 14.1732 0 0 1 28.35 363.42 A14.1732 14.1732 0 1 1 0 363.42 Z" class="st4"/>
		</g>
		<g id="shape28-62" v:mID="28" v:groupContext="shape" v:layerMember="0;1" transform="translate(299.138,-291.18)">
			<title>頁面上的參考.976</title>
			<v:userDefs>
				<v:ud v:nameU="visVersion" v:prompt="" v:val="VT0(14):26"/>
				<v:ud v:nameU="msvThemeColors" v:val="VT0(36):26"/>
				<v:ud v:nameU="msvThemeEffects" v:val="VT0(16):26"/>
			</v:userDefs>
			<path d="M0 363.42 A14.1732 14.1732 0 0 1 28.35 363.42 A14.1732 14.1732 0 1 1 0 363.42 Z" class="st7"/>
		</g>
		<g id="shape29-64" v:mID="29" v:groupContext="shape" v:layerMember="0;1" transform="translate(341.657,-291.18)">
			<title>頁面上的參考.977</title>
			<v:userDefs>
				<v:ud v:nameU="visVersion" v:prompt="" v:val="VT0(14):26"/>
				<v:ud v:nameU="msvThemeColors" v:val="VT0(36):26"/>
				<v:ud v:nameU="msvThemeEffects" v:val="VT0(16):26"/>
			</v:userDefs>
			<path d="M0 363.42 A14.1732 14.1732 0 0 1 28.35 363.42 A14.1732 14.1732 0 1 1 0 363.42 Z" class="st8"/>
		</g>
		<g id="shape30-66" v:mID="30" v:groupContext="shape" v:layerMember="0;1" transform="translate(384.177,-291.18)">
			<title>頁面上的參考.978</title>
			<v:userDefs>
				<v:ud v:nameU="visVersion" v:prompt="" v:val="VT0(14):26"/>
				<v:ud v:nameU="msvThemeColors" v:val="VT0(36):26"/>
				<v:ud v:nameU="msvThemeEffects" v:val="VT0(16):26"/>
			</v:userDefs>
			<path d="M0 363.42 A14.1732 14.1732 0 0 1 28.35 363.42 A14.1732 14.1732 0 1 1 0 363.42 Z" class="st7"/>
		</g>
		<g id="shape31-68" v:mID="31" v:groupContext="shape" v:layerMember="0;1" transform="translate(426.697,-288.345)">
			<title>頁面上的參考.979</title>
			<v:userDefs>
				<v:ud v:nameU="visVersion" v:prompt="" v:val="VT0(14):26"/>
				<v:ud v:nameU="msvThemeColors" v:val="VT0(36):26"/>
				<v:ud v:nameU="msvThemeEffects" v:val="VT0(16):26"/>
			</v:userDefs>
			<path d="M0 363.42 A14.1732 14.1732 0 0 1 28.35 363.42 A14.1732 14.1732 0 1 1 0 363.42 Z" class="st8"/>
		</g>
		<g id="shape32-70" v:mID="32" v:groupContext="shape" v:layerMember="0;1" transform="translate(426.697,-340.786)">
			<title>頁面上的參考.980</title>
			<v:userDefs>
				<v:ud v:nameU="visVersion" v:prompt="" v:val="VT0(14):26"/>
				<v:ud v:nameU="msvThemeColors" v:val="VT0(36):26"/>
				<v:ud v:nameU="msvThemeEffects" v:val="VT0(16):26"/>
			</v:userDefs>
			<path d="M0 363.42 A14.1732 14.1732 0 0 1 28.35 363.42 A14.1732 14.1732 0 1 1 0 363.42 Z" class="st9"/>
		</g>
		<g id="shape33-72" v:mID="33" v:groupContext="shape" v:layerMember="0" transform="translate(433.783,-269.92)">
			<title>動態連接器.981</title>
			<v:userDefs>
				<v:ud v:nameU="msvThemeColors" v:val="VT0(36):26"/>
				<v:ud v:nameU="msvThemeEffects" v:val="VT0(16):26"/>
			</v:userDefs>
			<path d="M7.09 377.59 L7.09 366.2" class="st10"/>
		</g>
		<g id="shape34-78" v:mID="34" v:groupContext="shape" v:layerMember="0" transform="translate(398.35,-269.92)">
			<title>動態連接器.982</title>
			<v:userDefs>
				<v:ud v:nameU="msvThemeColors" v:val="VT0(36):26"/>
				<v:ud v:nameU="msvThemeEffects" v:val="VT0(16):26"/>
			</v:userDefs>
			<path d="M0 377.59 L36.06 361.96" class="st10"/>
		</g>
		<g id="shape35-84" v:mID="35" v:groupContext="shape" v:layerMember="0" transform="translate(348.744,-269.92)">
			<title>動態連接器.983</title>
			<v:userDefs>
				<v:ud v:nameU="msvThemeColors" v:val="VT0(36):26"/>
				<v:ud v:nameU="msvThemeEffects" v:val="VT0(16):26"/>
			</v:userDefs>
			<path d="M7.09 377.59 L7.09 363.36" class="st10"/>
		</g>
		<g id="shape36-90" v:mID="36" v:groupContext="shape" v:layerMember="0" transform="translate(313.311,-269.92)">
			<title>動態連接器.984</title>
			<v:userDefs>
				<v:ud v:nameU="msvThemeColors" v:val="VT0(36):26"/>
				<v:ud v:nameU="msvThemeEffects" v:val="VT0(16):26"/>
			</v:userDefs>
			<path d="M0 377.59 L36.23 359.48" class="st10"/>
		</g>
		<g id="shape37-96" v:mID="37" v:groupContext="shape" v:layerMember="0;1" transform="translate(299.138,-340.786)">
			<title>頁面上的參考.985</title>
			<v:userDefs>
				<v:ud v:nameU="visVersion" v:prompt="" v:val="VT0(14):26"/>
				<v:ud v:nameU="msvThemeColors" v:val="VT0(36):26"/>
				<v:ud v:nameU="msvThemeEffects" v:val="VT0(16):26"/>
			</v:userDefs>
			<path d="M0 363.42 A14.1732 14.1732 0 0 1 28.35 363.42 A14.1732 14.1732 0 1 1 0 363.42 Z" class="st12"/>
		</g>
		<g id="shape38-98" v:mID="38" v:groupContext="shape" v:layerMember="0;1" transform="translate(341.657,-340.786)">
			<title>頁面上的參考.986</title>
			<v:userDefs>
				<v:ud v:nameU="visVersion" v:prompt="" v:val="VT0(14):26"/>
				<v:ud v:nameU="msvThemeColors" v:val="VT0(36):26"/>
				<v:ud v:nameU="msvThemeEffects" v:val="VT0(16):26"/>
			</v:userDefs>
			<path d="M0 363.42 A14.1732 14.1732 0 0 1 28.35 363.42 A14.1732 14.1732 0 1 1 0 363.42 Z" class="st12"/>
		</g>
		<g id="shape39-100" v:mID="39" v:groupContext="shape" v:layerMember="0;1" transform="translate(384.177,-340.786)">
			<title>頁面上的參考.987</title>
			<v:userDefs>
				<v:ud v:nameU="visVersion" v:prompt="" v:val="VT0(14):26"/>
				<v:ud v:nameU="msvThemeColors" v:val="VT0(36):26"/>
				<v:ud v:nameU="msvThemeEffects" v:val="VT0(16):26"/>
			</v:userDefs>
			<path d="M0 363.42 A14.1732 14.1732 0 0 1 28.35 363.42 A14.1732 14.1732 0 1 1 0 363.42 Z" class="st13"/>
		</g>
		<g id="shape40-102" v:mID="40" v:groupContext="shape" v:layerMember="0" transform="translate(313.311,-223.148)">
			<title>動態連接器.988</title>
			<desc>Receptive field</desc>
			<v:userDefs>
				<v:ud v:nameU="msvThemeColors" v:val="VT0(36):26"/>
				<v:ud v:nameU="msvThemeEffects" v:val="VT0(16):26"/>
			</v:userDefs>
			<v:textBlock v:margins="rect(4,4,4,4)" v:tabSpace="42.5197"/>
			<v:textRect cx="63.7795" cy="370.503" width="125.97" height="29.6036"/>
			<path d="M2.28 370.5 L2.64 370.5 L124.92 370.5" class="st14"/>
			<rect v:rectContext="textBkgnd" x="7.05049" y="359.703" width="113.458" height="21.5999" class="st16"/>
			<text x="7.05" y="375.9" class="st17" v:langID="1033"><v:paragraph v:horizAlign="1"/><v:tabList/>Receptive field</text>		</g>
		<g id="shape41-115" v:mID="41" v:groupContext="shape" v:layerMember="0" transform="translate(185.752,-24.7231)">
			<title>動態連接器.989</title>
			<desc>Effective receptive field</desc>
			<v:userDefs>
				<v:ud v:nameU="msvThemeColors" v:val="VT0(36):26"/>
				<v:ud v:nameU="msvThemeEffects" v:val="VT0(16):26"/>
			</v:userDefs>
			<v:textBlock v:margins="rect(4,4,4,4)" v:tabSpace="42.5197"/>
			<v:textRect cx="127.559" cy="370.503" width="193.41" height="29.6036"/>
			<path d="M2.28 370.5 L2.64 370.5 L252.48 370.5" class="st14"/>
			<rect v:rectContext="textBkgnd" x="37.1064" y="359.703" width="180.905" height="21.5999" class="st16"/>
			<text x="37.11" y="375.9" class="st17" v:langID="1033"><v:paragraph v:horizAlign="1"/><v:tabList/>E<tspan class="st18"
						v:langID="1028">ffective</tspan> receptive field</text>		</g>
		<g id="shape42-126" v:mID="42" v:groupContext="shape" v:layerMember="0" transform="translate(355.831,-71.4947)">
			<title>動態連接器.990</title>
			<v:userDefs>
				<v:ud v:nameU="msvThemeColors" v:val="VT0(36):26"/>
				<v:ud v:nameU="msvThemeEffects" v:val="VT0(16):26"/>
			</v:userDefs>
			<path d="M0 377.59 L78.21 358.04" class="st10"/>
		</g>
		<g id="shape43-132" v:mID="43" v:groupContext="shape" v:layerMember="0" transform="translate(263.705,-71.4947)">
			<title>動態連接器.991</title>
			<v:userDefs>
				<v:ud v:nameU="msvThemeColors" v:val="VT0(36):26"/>
				<v:ud v:nameU="msvThemeEffects" v:val="VT0(16):26"/>
			</v:userDefs>
			<path d="M7.09 377.59 L7.09 363.36" class="st10"/>
		</g>
		<g id="shape44-138" v:mID="44" v:groupContext="shape" v:layerMember="0" transform="translate(185.752,-71.4947)">
			<title>動態連接器.992</title>
			<v:userDefs>
				<v:ud v:nameU="msvThemeColors" v:val="VT0(36):26"/>
				<v:ud v:nameU="msvThemeEffects" v:val="VT0(16):26"/>
			</v:userDefs>
			<path d="M0 377.59 L78.21 358.04" class="st10"/>
		</g>
		<g id="shape45-144" v:mID="45" v:groupContext="shape" v:layerMember="0" transform="translate(433.783,-316.692)">
			<title>動態連接器.993</title>
			<v:userDefs>
				<v:ud v:nameU="msvThemeColors" v:val="VT0(36):26"/>
				<v:ud v:nameU="msvThemeEffects" v:val="VT0(16):26"/>
			</v:userDefs>
			<path d="M7.09 377.59 L7.09 360.53" class="st10"/>
		</g>
		<g id="shape46-150" v:mID="46" v:groupContext="shape" v:layerMember="0" transform="translate(355.831,-319.526)">
			<title>動態連接器.994</title>
			<v:userDefs>
				<v:ud v:nameU="msvThemeColors" v:val="VT0(36):26"/>
				<v:ud v:nameU="msvThemeEffects" v:val="VT0(16):26"/>
			</v:userDefs>
			<path d="M0 377.59 L78.21 358.04" class="st10"/>
		</g>
		<g id="shape47-156" v:mID="47" v:groupContext="shape" v:layerMember="0" transform="translate(433.783,-121.101)">
			<title>動態連接器.995</title>
			<v:userDefs>
				<v:ud v:nameU="msvThemeColors" v:val="VT0(36):26"/>
				<v:ud v:nameU="msvThemeEffects" v:val="VT0(16):26"/>
			</v:userDefs>
			<path d="M7.09 377.59 L7.09 363.36" class="st10"/>
		</g>
		<g id="shape48-162" v:mID="48" v:groupContext="shape" v:layerMember="0" transform="translate(270.791,-121.101)">
			<title>動態連接器.996</title>
			<v:userDefs>
				<v:ud v:nameU="msvThemeColors" v:val="VT0(36):26"/>
				<v:ud v:nameU="msvThemeEffects" v:val="VT0(16):26"/>
			</v:userDefs>
			<path d="M0 377.59 L163.1 357.2" class="st10"/>
		</g>
		<g id="shape49-168" v:mID="49" v:groupContext="shape" transform="translate(457.878,-128.188)">
			<title>工作表.49</title>
			<desc>Output Dilation = 2×ET</desc>
			<v:userDefs>
				<v:ud v:nameU="msvThemeColors" v:val="VT0(36):26"/>
				<v:ud v:nameU="msvThemeEffects" v:val="VT0(16):26"/>
			</v:userDefs>
			<v:textBlock v:margins="rect(2,2,2,2)" v:tabSpace="42.5197"/>
			<v:textRect cx="62.3622" cy="359.873" width="124.73" height="35.4331"/>
			<rect x="0" y="342.156" width="124.724" height="35.4331" class="st1"/>
			<text x="2" y="353.1" class="st19" v:langID="1033"><v:paragraph/><v:tabList/>Output<v:newlineChar/><tspan x="2"
						dy="1.315em" class="st20">Dilation </tspan><tspan class="st20">= </tspan><tspan class="st20">2</tspan><tspan
						class="st21">×</tspan><tspan class="st22" v:langID="1028">E</tspan><tspan dy="-0.279em" class="st23"
						v:langID="1028" v:baseFontSize="18">T</tspan></text>		</g>
		<g id="shape50-177" v:mID="50" v:groupContext="shape" transform="translate(457.878,-78.5813)">
			<title>工作表.50</title>
			<desc>Hidden layer Dilation = 1×ET</desc>
			<v:userDefs>
				<v:ud v:nameU="msvThemeColors" v:val="VT0(36):26"/>
				<v:ud v:nameU="msvThemeEffects" v:val="VT0(16):26"/>
			</v:userDefs>
			<v:textBlock v:margins="rect(2,2,2,2)" v:tabSpace="42.5197"/>
			<v:textRect cx="62.3622" cy="359.873" width="124.73" height="35.4331"/>
			<rect x="0" y="342.156" width="124.724" height="35.4331" class="st1"/>
			<text x="2" y="353.1" class="st19" v:langID="1033"><v:paragraph/><v:tabList/>Hidden layer<v:newlineChar/><tspan x="2"
						dy="1.315em" class="st20">Dilation </tspan><tspan class="st20">= </tspan><tspan class="st20">1</tspan><tspan
						class="st21">×</tspan><tspan class="st22" v:langID="1028">E</tspan><tspan dy="-0.279em" class="st23"
						v:langID="1028" v:baseFontSize="18">T</tspan></text>		</g>
		<g id="shape51-186" v:mID="51" v:groupContext="shape" transform="translate(457.878,-43.1483)">
			<title>工作表.51</title>
			<desc>Input</desc>
			<v:userDefs>
				<v:ud v:nameU="msvThemeColors" v:val="VT0(36):26"/>
				<v:ud v:nameU="msvThemeEffects" v:val="VT0(16):26"/>
			</v:userDefs>
			<v:textBlock v:margins="rect(2,2,2,2)" v:tabSpace="42.5197"/>
			<v:textRect cx="51.278" cy="363.416" width="102.56" height="28.3465"/>
			<rect x="0" y="349.243" width="102.556" height="28.3465" class="st1"/>
			<text x="2" y="368.82" class="st19" v:langID="1033"><v:paragraph/><v:tabList/>Input</text>		</g>
		<g id="shape52-189" v:mID="52" v:groupContext="shape" transform="translate(457.878,-326.613)">
			<title>工作表.52</title>
			<desc>Output Dilation = 2</desc>
			<v:userDefs>
				<v:ud v:nameU="msvThemeColors" v:val="VT0(36):26"/>
				<v:ud v:nameU="msvThemeEffects" v:val="VT0(16):26"/>
			</v:userDefs>
			<v:textBlock v:margins="rect(2,2,2,2)" v:tabSpace="42.5197"/>
			<v:textRect cx="46.5424" cy="359.873" width="93.09" height="35.4331"/>
			<rect x="0" y="342.156" width="93.0848" height="35.4331" class="st1"/>
			<text x="2" y="354.43" class="st19" v:langID="1033"><v:paragraph/><v:tabList/>Output<v:newlineChar/><tspan x="2"
						dy="1.204em" class="st20">Dilation </tspan><tspan class="st20">= </tspan><tspan class="st20">2</tspan></text>		</g>
		<g id="shape53-195" v:mID="53" v:groupContext="shape" transform="translate(457.878,-277.007)">
			<title>工作表.53</title>
			<desc>Hidden layer Dilation = 1</desc>
			<v:userDefs>
				<v:ud v:nameU="msvThemeColors" v:val="VT0(36):26"/>
				<v:ud v:nameU="msvThemeEffects" v:val="VT0(16):26"/>
			</v:userDefs>
			<v:textBlock v:margins="rect(2,2,2,2)" v:tabSpace="42.5197"/>
			<v:textRect cx="54.5669" cy="361.999" width="109.14" height="31.1811"/>
			<rect x="0" y="346.408" width="109.134" height="31.1811" class="st1"/>
			<text x="2" y="356.6" class="st19" v:langID="1033"><v:paragraph/><v:tabList/>Hidden layer<v:newlineChar/><tspan x="2"
						dy="1.2em" class="st20">Dilation </tspan><tspan class="st20">= </tspan><tspan class="st20">1</tspan></text>		</g>
		<g id="shape54-201" v:mID="54" v:groupContext="shape" transform="translate(457.878,-241.573)">
			<title>工作表.54</title>
			<desc>Input</desc>
			<v:userDefs>
				<v:ud v:nameU="msvThemeColors" v:val="VT0(36):26"/>
				<v:ud v:nameU="msvThemeEffects" v:val="VT0(16):26"/>
			</v:userDefs>
			<v:textBlock v:margins="rect(2,2,2,2)" v:tabSpace="42.5197"/>
			<v:textRect cx="46.5424" cy="363.416" width="93.09" height="28.3465"/>
			<rect x="0" y="349.243" width="93.0848" height="28.3465" class="st1"/>
			<text x="2" y="368.82" class="st19" v:langID="1033"><v:paragraph/><v:tabList/>Input</text>		</g>
		<g id="shape55-204" v:mID="55" v:groupContext="shape" v:layerMember="0" transform="translate(228.272,-340.786)">
			<title>動態連接器.1003</title>
			<desc>Pitch-dependent dilated factors ET</desc>
			<v:userDefs>
				<v:ud v:nameU="msvThemeColors" v:val="VT0(36):26"/>
				<v:ud v:nameU="msvThemeEffects" v:val="VT0(16):26"/>
			</v:userDefs>
			<v:textBlock v:margins="rect(4,4,4,4)" v:tabSpace="42.5197"/>
			<v:textRect cx="-62.8941" cy="423.634" width="143.01" height="72.9018"/>
			<path d="M0 377.59 C-56.69 391.76 -61.72 414.74 -65.29 434.81 C-67.97 449.88 -69.83 463.31 -70.55 484.27 L-70.55 484.63"
					class="st24"/>
			<rect v:rectContext="textBkgnd" x="-125.894" y="391.185" width="126" height="65.9745" class="st16"/>
			<text x="-125.89" y="407.38" class="st19" v:langID="1028"><v:paragraph v:horizAlign="1"/><v:tabList/>Pitch<tspan
						class="st18" v:langID="1033">-</tspan><tspan class="st18" v:langID="1033">dependent <v:newlineChar/></tspan><tspan
						x="-118.13" dy="1.204em" class="st18" v:langID="1033">dilated factor</tspan>s<tspan class="st20"
						v:langID="1033"> </tspan><tspan x="-71.64" dy="1.202em" class="st22">E</tspan><tspan dy="-0.279em"
						class="st23" v:baseFontSize="18">T</tspan></text>		</g>
		<g id="shape56-218" v:mID="56" v:groupContext="shape" transform="translate(1.5,-177.794)">
			<title>工作表.56</title>
			<desc>Pitch dependent dilated convolution</desc>
			<v:userDefs>
				<v:ud v:nameU="msvThemeColors" v:val="VT0(36):26"/>
				<v:ud v:nameU="msvThemeEffects" v:val="VT0(16):26"/>
			</v:userDefs>
			<v:textBlock v:margins="rect(2,2,2,2)" v:tabSpace="42.5197"/>
			<v:textRect cx="155.906" cy="366.959" width="311.82" height="21.2598"/>
			<rect x="0" y="356.329" width="311.811" height="21.2598" class="st1"/>
			<text x="2" y="372.96" class="st26" v:langID="1028"><v:paragraph/><v:tabList/>Pitch dependent dilated convolution</text>		</g>
		<g id="shape57-221" v:mID="57" v:groupContext="shape" v:layerMember="0;1" transform="translate(44.0197,-43.1483)">
			<title>頁面上的參考.1005</title>
			<v:userDefs>
				<v:ud v:nameU="visVersion" v:prompt="" v:val="VT0(14):26"/>
				<v:ud v:nameU="msvThemeColors" v:val="VT0(36):26"/>
				<v:ud v:nameU="msvThemeEffects" v:val="VT0(16):26"/>
			</v:userDefs>
			<path d="M0 363.42 A14.1732 14.1732 0 0 1 28.35 363.42 A14.1732 14.1732 0 1 1 0 363.42 Z" class="st3"/>
		</g>
		<g id="shape58-223" v:mID="58" v:groupContext="shape" v:layerMember="0;1" transform="translate(86.5394,-43.1483)">
			<title>頁面上的參考.1006</title>
			<v:userDefs>
				<v:ud v:nameU="visVersion" v:prompt="" v:val="VT0(14):26"/>
				<v:ud v:nameU="msvThemeColors" v:val="VT0(36):26"/>
				<v:ud v:nameU="msvThemeEffects" v:val="VT0(16):26"/>
			</v:userDefs>
			<path d="M0 363.42 A14.1732 14.1732 0 0 1 28.35 363.42 A14.1732 14.1732 0 1 1 0 363.42 Z" class="st3"/>
		</g>
		<g id="shape59-225" v:mID="59" v:groupContext="shape" v:layerMember="0;1" transform="translate(129.059,-43.1483)">
			<title>頁面上的參考.1007</title>
			<v:userDefs>
				<v:ud v:nameU="visVersion" v:prompt="" v:val="VT0(14):26"/>
				<v:ud v:nameU="msvThemeColors" v:val="VT0(36):26"/>
				<v:ud v:nameU="msvThemeEffects" v:val="VT0(16):26"/>
			</v:userDefs>
			<path d="M0 363.42 A14.1732 14.1732 0 0 1 28.35 363.42 A14.1732 14.1732 0 1 1 0 363.42 Z" class="st5"/>
		</g>
		<g id="shape60-227" v:mID="60" v:groupContext="shape" v:layerMember="0;1" transform="translate(44.0197,-92.7546)">
			<title>頁面上的參考.1008</title>
			<v:userDefs>
				<v:ud v:nameU="visVersion" v:prompt="" v:val="VT0(14):26"/>
				<v:ud v:nameU="msvThemeColors" v:val="VT0(36):26"/>
				<v:ud v:nameU="msvThemeEffects" v:val="VT0(16):26"/>
			</v:userDefs>
			<path d="M0 363.42 A14.1732 14.1732 0 0 1 28.35 363.42 A14.1732 14.1732 0 1 1 0 363.42 Z" class="st6"/>
		</g>
		<g id="shape61-229" v:mID="61" v:groupContext="shape" v:layerMember="0;1" transform="translate(86.5394,-92.7546)">
			<title>頁面上的參考.1009</title>
			<v:userDefs>
				<v:ud v:nameU="visVersion" v:prompt="" v:val="VT0(14):26"/>
				<v:ud v:nameU="msvThemeColors" v:val="VT0(36):26"/>
				<v:ud v:nameU="msvThemeEffects" v:val="VT0(16):26"/>
			</v:userDefs>
			<path d="M0 363.42 A14.1732 14.1732 0 0 1 28.35 363.42 A14.1732 14.1732 0 1 1 0 363.42 Z" class="st6"/>
		</g>
		<g id="shape62-231" v:mID="62" v:groupContext="shape" v:layerMember="0;1" transform="translate(129.059,-92.7546)">
			<title>頁面上的參考.1010</title>
			<v:userDefs>
				<v:ud v:nameU="visVersion" v:prompt="" v:val="VT0(14):26"/>
				<v:ud v:nameU="msvThemeColors" v:val="VT0(36):26"/>
				<v:ud v:nameU="msvThemeEffects" v:val="VT0(16):26"/>
			</v:userDefs>
			<path d="M0 363.42 A14.1732 14.1732 0 0 1 28.35 363.42 A14.1732 14.1732 0 1 1 0 363.42 Z" class="st7"/>
		</g>
		<g id="shape63-233" v:mID="63" v:groupContext="shape" v:layerMember="0;1" transform="translate(44.0197,-142.361)">
			<title>頁面上的參考.1011</title>
			<v:userDefs>
				<v:ud v:nameU="visVersion" v:prompt="" v:val="VT0(14):26"/>
				<v:ud v:nameU="msvThemeColors" v:val="VT0(36):26"/>
				<v:ud v:nameU="msvThemeEffects" v:val="VT0(16):26"/>
			</v:userDefs>
			<path d="M0 363.42 A14.1732 14.1732 0 0 1 28.35 363.42 A14.1732 14.1732 0 1 1 0 363.42 Z" class="st12"/>
		</g>
		<g id="shape64-235" v:mID="64" v:groupContext="shape" v:layerMember="0;1" transform="translate(86.5394,-142.361)">
			<title>頁面上的參考.1012</title>
			<v:userDefs>
				<v:ud v:nameU="visVersion" v:prompt="" v:val="VT0(14):26"/>
				<v:ud v:nameU="msvThemeColors" v:val="VT0(36):26"/>
				<v:ud v:nameU="msvThemeEffects" v:val="VT0(16):26"/>
			</v:userDefs>
			<path d="M0 363.42 A14.1732 14.1732 0 0 1 28.35 363.42 A14.1732 14.1732 0 1 1 0 363.42 Z" class="st12"/>
		</g>
		<g id="shape65-237" v:mID="65" v:groupContext="shape" v:layerMember="0;1" transform="translate(129.059,-142.361)">
			<title>頁面上的參考.1013</title>
			<v:userDefs>
				<v:ud v:nameU="visVersion" v:prompt="" v:val="VT0(14):26"/>
				<v:ud v:nameU="msvThemeColors" v:val="VT0(36):26"/>
				<v:ud v:nameU="msvThemeEffects" v:val="VT0(16):26"/>
			</v:userDefs>
			<path d="M0 363.42 A14.1732 14.1732 0 0 1 28.35 363.42 A14.1732 14.1732 0 1 1 0 363.42 Z" class="st12"/>
		</g>
		<g id="shape66-239" v:mID="66" v:groupContext="shape" v:layerMember="0;1" transform="translate(256.618,-241.573)">
			<title>頁面上的參考.1017</title>
			<v:userDefs>
				<v:ud v:nameU="visVersion" v:prompt="" v:val="VT0(14):26"/>
				<v:ud v:nameU="msvThemeColors" v:val="VT0(36):26"/>
				<v:ud v:nameU="msvThemeEffects" v:val="VT0(16):26"/>
			</v:userDefs>
			<path d="M0 363.42 A14.1732 14.1732 0 0 1 28.35 363.42 A14.1732 14.1732 0 1 1 0 363.42 Z" class="st5"/>
		</g>
		<g id="shape67-241" v:mID="67" v:groupContext="shape" v:layerMember="0;1" transform="translate(256.618,-291.18)">
			<title>頁面上的參考.1019</title>
			<v:userDefs>
				<v:ud v:nameU="visVersion" v:prompt="" v:val="VT0(14):26"/>
				<v:ud v:nameU="msvThemeColors" v:val="VT0(36):26"/>
				<v:ud v:nameU="msvThemeEffects" v:val="VT0(16):26"/>
			</v:userDefs>
			<path d="M0 363.42 A14.1732 14.1732 0 0 1 28.35 363.42 A14.1732 14.1732 0 1 1 0 363.42 Z" class="st6"/>
		</g>
		<g id="shape68-243" v:mID="68" v:groupContext="shape" v:layerMember="0;1" transform="translate(256.618,-340.786)">
			<title>頁面上的參考.1023</title>
			<v:userDefs>
				<v:ud v:nameU="visVersion" v:prompt="" v:val="VT0(14):26"/>
				<v:ud v:nameU="msvThemeColors" v:val="VT0(36):26"/>
				<v:ud v:nameU="msvThemeEffects" v:val="VT0(16):26"/>
			</v:userDefs>
			<path d="M0 363.42 A14.1732 14.1732 0 0 1 28.35 363.42 A14.1732 14.1732 0 1 1 0 363.42 Z" class="st12"/>
		</g>
		<g id="shape69-245" v:mID="69" v:groupContext="shape" v:layerMember="0" transform="translate(391.264,-319.526)">
			<title>動態連接器.1024</title>
			<v:userDefs>
				<v:ud v:nameU="msvThemeColors" v:val="VT0(36):26"/>
				<v:ud v:nameU="msvThemeEffects" v:val="VT0(16):26"/>
			</v:userDefs>
			<path d="M7.09 377.59 L7.09 363.36" class="st27"/>
		</g>
		<g id="shape70-251" v:mID="70" v:groupContext="shape" v:layerMember="0" transform="translate(313.311,-319.526)">
			<title>動態連接器.1025</title>
			<v:userDefs>
				<v:ud v:nameU="msvThemeColors" v:val="VT0(36):26"/>
				<v:ud v:nameU="msvThemeEffects" v:val="VT0(16):26"/>
			</v:userDefs>
			<path d="M0 377.59 L78.21 358.04" class="st27"/>
		</g>
		<g id="shape71-257" v:mID="71" v:groupContext="shape" v:layerMember="0" transform="translate(391.264,-269.92)">
			<title>動態連接器.1026</title>
			<v:userDefs>
				<v:ud v:nameU="msvThemeColors" v:val="VT0(36):26"/>
				<v:ud v:nameU="msvThemeEffects" v:val="VT0(16):26"/>
			</v:userDefs>
			<path d="M7.09 377.59 L7.09 363.36" class="st27"/>
		</g>
		<g id="shape72-263" v:mID="72" v:groupContext="shape" v:layerMember="0" transform="translate(355.831,-269.92)">
			<title>動態連接器.1027</title>
			<v:userDefs>
				<v:ud v:nameU="msvThemeColors" v:val="VT0(36):26"/>
				<v:ud v:nameU="msvThemeEffects" v:val="VT0(16):26"/>
			</v:userDefs>
			<path d="M0 377.59 L36.23 359.48" class="st27"/>
		</g>
		<g id="shape73-269" v:mID="73" v:groupContext="shape" v:layerMember="0" transform="translate(306.224,-269.92)">
			<title>動態連接器.1028</title>
			<v:userDefs>
				<v:ud v:nameU="msvThemeColors" v:val="VT0(36):26"/>
				<v:ud v:nameU="msvThemeEffects" v:val="VT0(16):26"/>
			</v:userDefs>
			<path d="M7.09 377.59 L7.09 363.36" class="st27"/>
		</g>
		<g id="shape74-275" v:mID="74" v:groupContext="shape" v:layerMember="0" transform="translate(270.791,-269.92)">
			<title>動態連接器.1020</title>
			<v:userDefs>
				<v:ud v:nameU="msvThemeColors" v:val="VT0(36):26"/>
				<v:ud v:nameU="msvThemeEffects" v:val="VT0(16):26"/>
			</v:userDefs>
			<path d="M0 377.59 L36.23 359.48" class="st27"/>
		</g>
		<g id="shape75-281" v:mID="75" v:groupContext="shape" v:layerMember="0" transform="translate(256.618,-203.306)">
			<title>動態連接器.1014</title>
			<desc>Receptive field</desc>
			<v:userDefs>
				<v:ud v:nameU="msvThemeColors" v:val="VT0(36):26"/>
				<v:ud v:nameU="msvThemeEffects" v:val="VT0(16):26"/>
			</v:userDefs>
			<v:textBlock v:margins="rect(4,4,4,4)" v:tabSpace="42.5197"/>
			<v:textRect cx="63.7795" cy="370.503" width="125.97" height="29.6036"/>
			<path d="M2.28 370.5 L2.64 370.5 L124.92 370.5" class="st28"/>
			<rect v:rectContext="textBkgnd" x="7.05049" y="359.703" width="113.458" height="21.5999" class="st16"/>
			<text x="7.05" y="375.9" class="st17" v:langID="1033"><v:paragraph v:horizAlign="1"/><v:tabList/>Receptive field</text>		</g>
		<g id="shape76-291" v:mID="76" v:groupContext="shape" v:layerMember="0" transform="translate(15.6732,-7.71519)">
			<title>動態連接器.1015</title>
			<desc>Effective receptive field</desc>
			<v:userDefs>
				<v:ud v:nameU="msvThemeColors" v:val="VT0(36):26"/>
				<v:ud v:nameU="msvThemeEffects" v:val="VT0(16):26"/>
			</v:userDefs>
			<v:textBlock v:margins="rect(4,4,4,4)" v:tabSpace="42.5197"/>
			<v:textRect cx="191.339" cy="370.503" width="193.41" height="29.6036"/>
			<path d="M2.28 370.5 L2.64 370.5 L380.04 370.5" class="st29"/>
			<rect v:rectContext="textBkgnd" x="100.886" y="359.703" width="180.905" height="21.5999" class="st16"/>
			<text x="100.89" y="375.9" class="st17" v:langID="1033"><v:paragraph v:horizAlign="1"/><v:tabList/>E<tspan class="st18"
						v:langID="1028">ffective</tspan> receptive field</text>		</g>
		<g id="shape77-302" v:mID="77" v:groupContext="shape" v:layerMember="0" transform="translate(391.264,-121.101)">
			<title>動態連接器.1016</title>
			<v:userDefs>
				<v:ud v:nameU="msvThemeColors" v:val="VT0(36):26"/>
				<v:ud v:nameU="msvThemeEffects" v:val="VT0(16):26"/>
			</v:userDefs>
			<path d="M7.09 377.59 L7.09 363.36" class="st27"/>
		</g>
		<g id="shape78-308" v:mID="78" v:groupContext="shape" v:layerMember="0" transform="translate(143.232,-121.101)">
			<title>動態連接器.1018</title>
			<v:userDefs>
				<v:ud v:nameU="msvThemeColors" v:val="VT0(36):26"/>
				<v:ud v:nameU="msvThemeEffects" v:val="VT0(16):26"/>
			</v:userDefs>
			<path d="M0 377.59 L248.11 356.91" class="st27"/>
		</g>
		<g id="shape79-314" v:mID="79" v:groupContext="shape" v:layerMember="0" transform="translate(391.264,-71.4947)">
			<title>動態連接器.1021</title>
			<v:userDefs>
				<v:ud v:nameU="msvThemeColors" v:val="VT0(36):26"/>
				<v:ud v:nameU="msvThemeEffects" v:val="VT0(16):26"/>
			</v:userDefs>
			<path d="M7.09 377.59 L7.09 363.36" class="st27"/>
		</g>
		<g id="shape80-320" v:mID="80" v:groupContext="shape" v:layerMember="0" transform="translate(270.791,-71.4947)">
			<title>動態連接器.1022</title>
			<v:userDefs>
				<v:ud v:nameU="msvThemeColors" v:val="VT0(36):26"/>
				<v:ud v:nameU="msvThemeEffects" v:val="VT0(16):26"/>
			</v:userDefs>
			<path d="M0 377.59 L120.62 357.49" class="st27"/>
		</g>
		<g id="shape81-326" v:mID="81" v:groupContext="shape" v:layerMember="0;1" transform="translate(1.5,-43.1483)">
			<title>頁面上的參考.1029</title>
			<v:userDefs>
				<v:ud v:nameU="visVersion" v:prompt="" v:val="VT0(14):26"/>
				<v:ud v:nameU="msvThemeColors" v:val="VT0(36):26"/>
				<v:ud v:nameU="msvThemeEffects" v:val="VT0(16):26"/>
			</v:userDefs>
			<path d="M0 363.42 A14.1732 14.1732 0 0 1 28.35 363.42 A14.1732 14.1732 0 1 1 0 363.42 Z" class="st5"/>
		</g>
		<g id="shape82-328" v:mID="82" v:groupContext="shape" v:layerMember="0;1" transform="translate(1.5,-92.7546)">
			<title>頁面上的參考.1030</title>
			<v:userDefs>
				<v:ud v:nameU="visVersion" v:prompt="" v:val="VT0(14):26"/>
				<v:ud v:nameU="msvThemeColors" v:val="VT0(36):26"/>
				<v:ud v:nameU="msvThemeEffects" v:val="VT0(16):26"/>
			</v:userDefs>
			<path d="M0 363.42 A14.1732 14.1732 0 0 1 28.35 363.42 A14.1732 14.1732 0 1 1 0 363.42 Z" class="st6"/>
		</g>
		<g id="shape83-330" v:mID="83" v:groupContext="shape" v:layerMember="0;1" transform="translate(1.5,-142.361)">
			<title>頁面上的參考.1031</title>
			<v:userDefs>
				<v:ud v:nameU="visVersion" v:prompt="" v:val="VT0(14):26"/>
				<v:ud v:nameU="msvThemeColors" v:val="VT0(36):26"/>
				<v:ud v:nameU="msvThemeEffects" v:val="VT0(16):26"/>
			</v:userDefs>
			<path d="M0 363.42 A14.1732 14.1732 0 0 1 28.35 363.42 A14.1732 14.1732 0 1 1 0 363.42 Z" class="st12"/>
		</g>
		<g id="shape84-332" v:mID="84" v:groupContext="shape" v:layerMember="0" transform="translate(136.146,-71.4947)">
			<title>動態連接器.1032</title>
			<v:userDefs>
				<v:ud v:nameU="msvThemeColors" v:val="VT0(36):26"/>
				<v:ud v:nameU="msvThemeEffects" v:val="VT0(16):26"/>
			</v:userDefs>
			<path d="M7.09 377.59 L7.09 363.36" class="st27"/>
		</g>
		<g id="shape85-338" v:mID="85" v:groupContext="shape" v:layerMember="0" transform="translate(15.6732,-71.4947)">
			<title>動態連接器.1033</title>
			<v:userDefs>
				<v:ud v:nameU="msvThemeColors" v:val="VT0(36):26"/>
				<v:ud v:nameU="msvThemeEffects" v:val="VT0(16):26"/>
			</v:userDefs>
			<path d="M0 377.59 L120.62 357.49" class="st27"/>
		</g>
		<g id="shape86-344" v:mID="86" v:groupContext="shape" transform="translate(419.61,-170.707)">
			<title>工作表.86</title>
			<desc>Et=2</desc>
			<v:userDefs>
				<v:ud v:nameU="msvThemeColors" v:val="VT0(36):26"/>
				<v:ud v:nameU="msvThemeEffects" v:val="VT0(16):26"/>
			</v:userDefs>
			<v:textBlock v:margins="rect(2,2,2,2)" v:tabSpace="42.5197"/>
			<v:textRect cx="21.2598" cy="363.416" width="42.52" height="28.3465"/>
			<rect x="0" y="349.243" width="42.5197" height="28.3465" class="st1"/>
			<text x="2.71" y="369.49" class="st30" v:langID="1028"><v:paragraph v:horizAlign="1"/><v:tabList/>E<tspan dy="-0.279em"
						class="st31" v:baseFontSize="20">t</tspan><tspan dy="0.181em" class="st32">=</tspan><tspan class="st32">2</tspan></text>		</g>
		<g id="shape87-350" v:mID="87" v:groupContext="shape" transform="translate(370.004,-170.707)">
			<title>工作表.87</title>
			<desc>Et-1=3</desc>
			<v:userDefs>
				<v:ud v:nameU="msvThemeColors" v:val="VT0(36):26"/>
				<v:ud v:nameU="msvThemeEffects" v:val="VT0(16):26"/>
			</v:userDefs>
			<v:textBlock v:margins="rect(2,2,2,2)" v:tabSpace="42.5197"/>
			<v:textRect cx="28.3465" cy="363.416" width="56.7" height="28.3465"/>
			<rect x="0" y="349.243" width="56.6929" height="28.3465" class="st1"/>
			<text x="4.38" y="369.49" class="st30" v:langID="1028"><v:paragraph v:horizAlign="1"/><v:tabList/>E<tspan dy="-0.279em"
						class="st31" v:baseFontSize="20">t</tspan><tspan class="st31" v:baseFontSize="20">-</tspan><tspan
						class="st31" v:baseFontSize="20">1</tspan><tspan dy="0.181em" class="st32">=</tspan><tspan class="st32">3</tspan></text>		</g>
		<g id="shape88-358" v:mID="88" v:groupContext="shape" transform="translate(341.657,-177.794)">
			<title>工作表.88</title>
			<desc>...</desc>
			<v:userDefs>
				<v:ud v:nameU="msvThemeColors" v:val="VT0(36):26"/>
				<v:ud v:nameU="msvThemeEffects" v:val="VT0(16):26"/>
			</v:userDefs>
			<v:textBlock v:margins="rect(2,2,2,2)" v:tabSpace="42.5197"/>
			<v:textRect cx="14.1732" cy="368.377" width="28.35" height="18.4252"/>
			<rect x="0" y="359.164" width="28.3465" height="18.4252" class="st1"/>
			<text x="6.67" y="374.38" class="st33" v:langID="1028"><v:paragraph v:horizAlign="1"/><v:tabList/>...</text>		</g>
	</g>
</svg>
